  0
SECTION
  2
HEADER
  9
$ACADVER
  1
AC1006
  9
$EXTMIN
 10
0.000000
 20
0.000000
 30
0.000000
  9
$EXTMAX
 10
80.000000
 20
80.000000
 30
0.000000
  0
ENDSEC
  0
SECTION
  2
ENTITIES
  0
POLYLINE
  8
0
 66
1
 70
1
  0
VERTEX
  8
0
 10
0.000000
 20
79.279853
 42
0.152165
  0
VERTEX
  8
0
 10
0.712724
 20
76.992132
 42
0.015619
  0
VERTEX
  8
0
 10
4.113714
 20
72.378781
 42
0.019886
  0
VERTEX
  8
0
 10
8.331853
 20
67.434046
 42
0.022641
  0
VERTEX
  8
0
 10
12.758671
 20
63.059238
 42
0.000000
  0
VERTEX
  8
0
 10
19.310887
 20
57.145624
 42
0.000000
  0
VERTEX
  8
0
 10
18.036333
 20
48.253486
 42
0.006621
  0
VERTEX
  8
0
 10
17.370278
 20
43.123886
 42
0.036148
  0
VERTEX
  8
0
 10
17.248347
 20
40.330076
 42
0.062337
  0
VERTEX
  8
0
 10
17.562631
 20
38.294178
 42
0.049935
  0
VERTEX
  8
0
 10
18.380890
 20
36.230334
 42
-0.056552
  0
VERTEX
  8
0
 10
19.612908
 20
32.999076
 42
-0.104755
  0
VERTEX
  8
0
 10
19.731786
 20
30.205895
 42
-0.069481
  0
VERTEX
  8
0
 10
18.684856
 20
26.879897
 42
-0.014564
  0
VERTEX
  8
0
 10
15.898364
 20
21.432399
 42
-0.011341
  0
VERTEX
  8
0
 10
13.968288
 20
18.097330
 42
-0.030837
  0
VERTEX
  8
0
 10
12.407719
 20
15.859550
 42
-0.042401
  0
VERTEX
  8
0
 10
11.131210
 20
14.503974
 42
-0.228065
  0
VERTEX
  8
0
 10
10.184616
 20
14.229503
 42
0.254995
  0
VERTEX
  8
0
 10
8.800573
 20
13.750623
 42
0.243844
  0
VERTEX
  8
0
 10
8.417001
 20
12.308662
 42
0.085545
  0
VERTEX
  8
0
 10
9.506390
 20
9.651188
 42
0.027301
  0
VERTEX
  8
0
 10
11.978200
 20
6.146795
 42
0.000000
  0
VERTEX
  8
0
 10
16.046507
 20
1.000000
 42
0.000000
  0
VERTEX
  8
0
 10
22.374030
 20
1.000000
 42
0.015585
  0
VERTEX
  8
0
 10
25.034272
 20
1.082939
 42
0.013800
  0
VERTEX
  8
0
 10
27.794866
 20
1.331877
 42
0.013995
  0
VERTEX
  8
0
 10
30.268669
 20
1.694424
 42
0.040503
  0
VERTEX
  8
0
 10
31.942482
 20
2.129794
 42
-0.035677
  0
VERTEX
  8
0
 10
33.658715
 20
2.593902
 42
-0.046374
  0
VERTEX
  8
0
 10
35.278474
 20
2.756584
 42
-0.044435
  0
VERTEX
  8
0
 10
36.954015
 20
2.619903
 42
-0.029136
  0
VERTEX
  8
0
 10
38.841706
 20
2.180976
 42
0.019482
  0
VERTEX
  8
0
 10
40.625102
 20
1.729856
 42
0.008525
  0
VERTEX
  8
0
 10
43.019906
 20
1.264937
 42
0.008421
  0
VERTEX
  8
0
 10
45.582211
 20
0.857056
 42
0.011143
  0
VERTEX
  8
0
 10
47.928185
 20
0.577193
 42
0.000000
  0
VERTEX
  8
0
 10
53.356371
 20
0.052023
 42
0.000000
  0
VERTEX
  8
0
 10
58.678185
 20
5.373838
 42
0.010800
  0
VERTEX
  8
0
 10
62.367179
 20
9.225738
 42
0.088407
  0
VERTEX
  8
0
 10
63.667097
 20
11.272466
 42
0.316851
  0
VERTEX
  8
0
 10
63.394951
 20
12.465917
 42
0.146825
  0
VERTEX
  8
0
 10
61.882465
 20
13.180449
 42
-0.108621
  0
VERTEX
  8
0
 10
60.869013
 20
13.569072
 42
-0.068203
  0
VERTEX
  8
0
 10
59.909999
 20
14.408091
 42
-0.053922
  0
VERTEX
  8
0
 10
59.020739
 20
15.685589
 42
-0.030568
  0
VERTEX
  8
0
 10
58.218320
 20
17.393390
 42
-0.011321
  0
VERTEX
  8
0
 10
57.356580
 20
19.714538
 42
-0.086858
  0
VERTEX
  8
0
 10
57.172676
 20
20.857290
 42
-0.163683
  0
VERTEX
  8
0
 10
57.455725
 20
21.662048
 42
-0.069293
  0
VERTEX
  8
0
 10
58.287944
 20
22.468599
 42
0.078440
  0
VERTEX
  8
0
 10
58.917805
 20
23.101660
 42
0.078335
  0
VERTEX
  8
0
 10
59.322393
 20
23.898233
 42
0.075788
  0
VERTEX
  8
0
 10
59.470744
 20
24.804147
 42
0.066802
  0
VERTEX
  8
0
 10
59.353786
 20
25.755122
 42
-0.115240
  0
VERTEX
  8
0
 10
59.322682
 20
26.937023
 42
-0.152966
  0
VERTEX
  8
0
 10
59.841582
 20
27.871843
 42
-0.075428
  0
VERTEX
  8
0
 10
61.138815
 20
28.778332
 42
-0.013271
  0
VERTEX
  8
0
 10
63.846410
 20
30.029273
 42
0.000000
  0
VERTEX
  8
0
 10
68.889427
 20
32.198721
 42
0.000000
  0
VERTEX
  8
0
 10
64.878703
 20
37.272667
 42
-0.017982
  0
VERTEX
  8
0
 10
62.090568
 20
41.073193
 42
-0.302484
  0
VERTEX
  8
0
 10
62.076463
 20
42.556925
 42
-0.178830
  0
VERTEX
  8
0
 10
63.527969
 20
43.635188
 42
-0.006536
  0
VERTEX
  8
0
 10
70.251533
 20
45.509919
 42
0.009855
  0
VERTEX
  8
0
 10
74.381514
 20
46.691082
 42
0.077998
  0
VERTEX
  8
0
 10
76.163742
 20
47.560698
 42
0.129974
  0
VERTEX
  8
0
 10
77.180469
 20
48.761287
 42
0.045626
  0
VERTEX
  8
0
 10
77.967956
 20
50.898836
 42
0.015872
  0
VERTEX
  8
0
 10
78.385702
 20
52.682592
 42
0.006355
  0
VERTEX
  8
0
 10
78.848498
 20
55.147446
 42
0.006282
  0
VERTEX
  8
0
 10
79.280493
 20
57.818836
 42
0.007885
  0
VERTEX
  8
0
 10
79.610596
 20
60.305237
 42
0.000000
  0
VERTEX
  8
0
 10
80.288347
 20
66.110475
 42
0.000000
  0
VERTEX
  8
0
 10
77.394173
 20
65.399628
 42
0.023568
  0
VERTEX
  8
0
 10
73.491377
 20
64.243593
 42
0.007417
  0
VERTEX
  8
0
 10
67.770977
 20
62.155912
 42
0.007600
  0
VERTEX
  8
0
 10
62.034144
 20
59.864772
 42
0.019147
  0
VERTEX
  8
0
 10
57.952138
 20
57.975582
 42
-0.018171
  0
VERTEX
  8
0
 10
53.102443
 20
55.719593
 42
-0.440719
  0
VERTEX
  8
0
 10
51.890590
 20
56.277059
 42
-0.321456
  0
VERTEX
  8
0
 10
52.390813
 20
57.824711
 42
-0.016406
  0
VERTEX
  8
0
 10
56.987745
 20
60.992136
 42
0.039004
  0
VERTEX
  8
0
 10
61.454428
 20
64.377062
 42
0.019446
  0
VERTEX
  8
0
 10
66.575067
 20
69.296285
 42
0.013188
  0
VERTEX
  8
0
 10
71.152301
 20
74.307210
 42
0.180375
  0
VERTEX
  8
0
 10
72.000000
 20
76.580587
 42
0.088841
  0
VERTEX
  8
0
 10
71.902941
 20
77.122524
 42
0.094951
  0
VERTEX
  8
0
 10
71.624525
 20
77.583048
 42
0.099932
  0
VERTEX
  8
0
 10
71.209420
 20
77.891138
 42
0.110266
  0
VERTEX
  8
0
 10
70.721788
 20
78.000000
 42
0.112775
  0
VERTEX
  8
0
 10
67.794670
 20
77.331285
 42
0.011465
  0
VERTEX
  8
0
 10
61.406700
 20
74.069273
 42
0.015300
  0
VERTEX
  8
0
 10
55.036729
 20
70.374060
 42
0.039312
  0
VERTEX
  8
0
 10
50.752279
 20
67.218346
 42
-0.011602
  0
VERTEX
  8
0
 10
47.895698
 20
64.859664
 42
-0.072824
  0
VERTEX
  8
0
 10
46.259648
 20
63.919395
 42
-0.115374
  0
VERTEX
  8
0
 10
44.768991
 20
63.699437
 42
-0.049056
  0
VERTEX
  8
0
 10
42.771500
 20
64.065533
 42
0.037592
  0
VERTEX
  8
0
 10
39.425168
 20
64.758341
 42
0.037408
  0
VERTEX
  8
0
 10
36.007274
 20
64.943846
 42
0.034857
  0
VERTEX
  8
0
 10
32.387319
 20
64.616272
 42
0.025358
  0
VERTEX
  8
0
 10
28.432434
 20
63.770686
 42
-0.010533
  0
VERTEX
  8
0
 10
25.662978
 20
63.092139
 42
-0.087896
  0
VERTEX
  8
0
 10
24.378630
 20
63.035756
 42
-0.169768
  0
VERTEX
  8
0
 10
23.536772
 20
63.461061
 42
-0.067325
  0
VERTEX
  8
0
 10
22.760572
 20
64.520686
 42
0.066752
  0
VERTEX
  8
0
 10
20.894322
 20
67.074490
 42
0.017680
  0
VERTEX
  8
0
 10
17.263709
 20
70.602401
 42
0.018679
  0
VERTEX
  8
0
 10
13.160549
 20
74.046838
 42
0.032993
  0
VERTEX
  8
0
 10
9.500000
 20
76.524526
 42
0.025171
  0
VERTEX
  8
0
 10
6.143356
 20
78.266638
 42
0.036545
  0
VERTEX
  8
0
 10
3.015383
 20
79.427426
 42
0.045455
  0
VERTEX
  8
0
 10
0.666689
 20
79.882638
 42
0.443993
  0
SEQEND
  0
POLYLINE
  8
0
 66
1
 70
1
  0
VERTEX
  8
0
 10
56.418213
 20
34.393011
 42
-0.084485
  0
VERTEX
  8
0
 10
57.598841
 20
33.693343
 42
-0.261620
  0
VERTEX
  8
0
 10
57.909897
 20
32.855481
 42
-0.186376
  0
VERTEX
  8
0
 10
57.369402
 20
31.921943
 42
-0.046548
  0
VERTEX
  8
0
 10
55.872826
 20
30.931939
 42
-0.106058
  0
VERTEX
  8
0
 10
54.289710
 20
30.476585
 42
-0.197175
  0
VERTEX
  8
0
 10
53.042318
 20
30.890804
 42
-0.200560
  0
VERTEX
  8
0
 10
52.459028
 20
32.053564
 42
-0.109307
  0
VERTEX
  8
0
 10
52.699509
 20
33.659316
 42
-0.084368
  0
VERTEX
  8
0
 10
53.212108
 20
34.524743
 42
-0.169835
  0
VERTEX
  8
0
 10
53.887653
 20
34.921698
 42
-0.113194
  0
VERTEX
  8
0
 10
54.868132
 20
34.891654
 42
-0.027594
  0
SEQEND
  0
ENDSEC
  0
EOF
